<svg version="1.2" xmlns="http://www.w3.org/2000/svg" viewBox="0 0 276 276" width="300" height="300">
	<title>AdobeStock_284113045 (1)-ai</title>
	<style>
		.s0 { fill: #000000 } 
		.s1 { fill: #ffffff } 
	</style>
	<g id="_Artboards_">
	</g>
	<g id="Layer 1">
		<path id="&lt;Path&gt;" class="s0" d="m-2007.1-42.9l58.5 55.2v-29.3h37.3v64.5l55.9 52.6h-36.5v126.5h-74.9v-46.7c0-21.7-17.8-39.5-39.5-39.5-21.7 0-39.5 17.8-39.5 39.5v46.7h-77.8v-126.5h-36.5z"/>
		<path id="&lt;Compound Path&gt;" fill-rule="evenodd" class="s0" d="m-1152.2-34.6c35.3 0 68.8 13.9 93.7 38.8 25 24.9 38.9 58.5 38.9 93.8 0 35.2-13.9 68.8-38.9 93.7-24.9 24.9-58.4 38.8-93.7 38.8-35.3 0-68.8-13.9-93.8-38.8-24.9-24.9-38.8-58.5-38.8-93.7 0-35.3 13.9-68.9 38.8-93.8 25-24.9 58.5-38.8 93.8-38.8zm68.5 80.3l0.2 0.7c3.2 14.1 5 28.4 5.5 42.8v0.7h41.9l-0.1-0.8c-1.3-17.1-6.3-33.7-14.8-48.6l-0.3-0.5-0.5 0.1q-15.5 3.3-31.1 5.5zm-24.9-55.7l1.6 2.1c3.3 4.4 6.2 9.2 8.8 14 3.9 7.5 7.2 15.3 9.8 23.3l0.2 0.6 0.6-0.1q12.7-1.7 25.3-4.2l1.1-0.2-0.7-0.9q-3.8-4.7-8.1-8.9c-10.4-10.4-22.7-18.8-36.2-24.6zm-87.4 0l-2.4 1c-13.5 5.8-25.8 14.2-36.2 24.6q-4.2 4.2-7.9 8.8l-0.8 0.9 1.2 0.2q12.6 2.3 25.3 4l0.5 0.1 0.2-0.5c2.7-8 5.9-15.7 9.8-23 2.6-4.9 5.5-9.6 8.8-14.1zm0 215.9l-1.6-2.1c-3.2-4.4-6.1-9.1-8.7-14-3.9-7.3-7.1-15-9.8-22.9l-0.2-0.5-0.5 0.1q-12.5 1.9-24.8 4.4l-1.2 0.3 0.8 0.9q3.5 4.2 7.4 8.2c10.4 10.4 22.7 18.7 36.2 24.6zm87.4 0l2.4-1.1c13.5-5.8 25.8-14.2 36.2-24.6q4-4 7.5-8.3l0.8-0.9-1.1-0.2q-12.4-2.7-24.9-4.7l-0.6-0.1-0.2 0.6c-2.6 8-5.8 15.7-9.8 23.2-2.6 4.8-5.5 9.5-8.8 14zm24.8-55.5l0.8 0.1q15.4 2.5 30.7 6.1l0.5 0.1 0.3-0.5c8.7-15.1 14-32 15.3-49.4v-0.8h-41.8v0.7c-0.5 14.5-2.3 28.9-5.6 42.9zm-168.9 6.4l0.5-0.1q15.3-3.4 30.8-5.9l0.7-0.1-0.2-0.7c-3.3-14.2-5.1-28.7-5.6-43.2l-0.1-0.7h-41.8l0.1 0.8c1.3 17.4 6.5 34.3 15.3 49.5zm93.1-122.7v-51.6l-0.9 0.3c-14.1 4.2-24.9 18.5-31.5 31-2.9 5.4-5.4 11.1-7.5 17l-0.3 0.8 0.9 0.1q19.3 1.9 38.6 2.3zm-44.9 13.4l-0.2 0.6c-3.3 13.4-5.1 27.3-5.6 41.1v0.8h50.7v-39.7h-0.7c-14.6-0.3-29.1-1.2-43.6-2.8zm44.9 97.9v-39.2h-50.7v0.7c0.5 13.9 2.3 27.7 5.6 41.1l0.1 0.6 0.7-0.1c14.5-1.7 29-2.8 43.6-3.1zm0 68.2v-52h-0.7q-19.4 0.5-38.7 2.6l-0.8 0.1 0.3 0.9c2.1 5.9 4.6 11.6 7.5 17.2 6.7 12.4 17.4 26.7 31.5 30.9zm16.2-52v51.5l1-0.3c13.3-4.8 23.5-18.3 29.9-30.4 3-5.6 5.5-11.5 7.7-17.5l0.3-0.8-0.9-0.1q-18.6-2-37.2-2.4zm43.4-13.2l0.2-0.6c3.2-13.4 5-27.1 5.5-40.8v-0.7h-49.1v39.1h0.6c14.1 0.3 28.2 1.2 42.2 2.9zm0-100.5l-0.6 0.1q-21 2.2-42.2 2.5h-0.7v39.6h49.2v-0.7c-0.5-13.8-2.3-27.5-5.5-40.9zm-4.7-15.7l-0.3-0.9c-2.2-5.9-4.7-11.7-7.6-17.3-6.5-12.1-16.7-25.7-30-30.4l-0.9-0.4v51.1h0.7q18.6-0.3 37.2-2.1zm-148.6 8.1l-0.3 0.4c-8.5 15-13.5 31.6-14.8 48.7l-0.1 0.8h41.8l0.1-0.7c0.5-14.5 2.3-28.9 5.6-43l0.2-0.8-0.8-0.1q-15.7-2.2-31.2-5.2z"/>
		<path id="&lt;Compound Path&gt;" fill-rule="evenodd" class="s0" d="m-1580.5-43.1c56.6 0 102.5 45.9 102.5 102.5q0 3.3-0.2 6.5l-0.1 1.3v0.1c-4.5 66.6-66.6 128.5-106.3 171.7-33.8-41.1-81.5-100.1-94.9-152.6-2.3-8.6-3.5-17.7-3.5-27 0-56.6 45.9-102.5 102.5-102.5zm-49 102.5c0 27.1 21.9 49 49 49 27 0 49-21.9 49-49 0-27-22-49-49-49-27.1 0-49 22-49 49z"/>
		<path id="&lt;Path&gt;" class="s0" d="m-309.4 41.3q-4.3-42.1-4.9-47.5c-1.4-13.6-29.6-12.3-40.2-7.3-44.7 21.1-32 81.2-15.7 117.4q46.3 89.6 102.7 104.6c29.5 10.5 67.6 3.3 70-33.2q0.5-7.5-1.5-12.1-3.4-7-49.4-26.2-8.9-3.2-20.9 7.2-1.8 1.6-3.5 2.8c-5.9 3.8-9.2 4.1-14.5 0-16.4-12.7-41.2-57.2-46.4-70.5q-2-8 7-12.4 17.2-7.7 17.3-22.8z"/>
		<path id="&lt;Compound Path&gt;" fill-rule="evenodd" class="s0" d="m-620.7 167.4h29q-13.6 27.7-41.8 43.5c-21.4 12-47.6 18-78.5 18-29.9 0-55.7-5.1-77.5-15.2q-32.6-15.2-48.5-44.8c-10.6-19.7-15.9-41.2-15.9-64.5q0-38.3 18.1-71.3c12-22 28.5-38.5 49.5-49.5q31.3-16.6 71.7-16.6c22.8 0 43.1 4.5 60.9 13.3q26.6 13.4 40.7 37.9 14 24.6 14 53.6c0 23.2-7.1 44.1-21.3 62.7q-26.7 35.4-68.5 35.4-11.3 0-17-3.9c-3.8-2.6-6.3-6.4-7.6-11.5-10.7 10.2-23 15.4-37 15.4q-22.5 0-37.4-15.5-14.9-15.6-14.9-41.4c0-21.3 6-40.7 17.9-58.3 14.5-21.4 33.1-32 55.7-32 16.1 0 28.1 6.1 35.7 18.5l3.4-15.2h35.8l-20.5 97.3q-1.9 9.3-1.9 12c0 2.2 0.5 3.9 1.6 5q1.5 1.8 3.7 1.8c4.3 0 10-2.7 16.9-7.9 9.2-6.9 16.7-16.2 22.4-27.7q8.5-17.4 8.6-36.1c0-22.2-8.1-40.9-24.2-55.8-16.2-15-38.6-22.5-67.5-22.5q-36.9 0-62.5 15c-17 10.1-29.9 24.2-38.5 42.4-8.7 18.2-13 37.1-13 56.8 0 19.2 4.8 36.6 14.5 52.3q14.4 23.6 40.6 34.4 26.1 10.8 59.8 10.8c21.6 0 40.3-3 55.8-9.1 15.6-6.1 28.2-15.2 37.7-27.3zm-146.6-55.9q0 17.3 6.9 25.5c4.7 5.4 10.5 8.1 17.3 8.1q7.8 0 14.5-3.8 5.1-2.7 10.2-8.6c4.8-5.5 8.9-13.5 12.4-24.1q5.2-15.9 5.2-29.7c0-10.2-2.4-18.1-7.1-23.5q-7.2-8.2-18-8.2-11.7 0-21.5 9-9.9 9.1-14.9 25.8-5 16.7-5 29.5z"/>
		<path id="&lt;Compound Path&gt;" fill-rule="evenodd" class="s0" d="m17 9.1h242.1c5.8 0 10.5 4.7 10.5 10.5v156.7c0 5.8-4.7 10.5-10.5 10.5h-242.1c-5.8 0-10.5-4.7-10.5-10.5v-156.7c0-5.8 4.7-10.5 10.5-10.5zm16.8 13.8l104.5 87.5c0.1 0.2 0.4 0.2 0.6 0.1l104.4-87.6zm222 9.1l-76 63.7 76 63.7zm-113.7 95.4c-2.3 1.8-5.9 1.8-8.2-0.1l-26-21.8-80.6 67.6h221.5l-80.6-67.6zm-121.8 32.1l76-63.8-76-63.7z"/>
		<path id="&lt;Path&gt;" class="s0" d="m-2007.3 461.1l39.7 37.4v-19.9h25.4v43.9l37.9 35.7h-24.8v85.9h-50.8v-31.7c0-14.7-12.1-26.8-26.9-26.8-14.7 0-26.8 12.1-26.8 26.8v31.7h-52.9v-85.9h-24.8z"/>
		<path id="&lt;Compound Path&gt;" fill-rule="evenodd" class="s0" d="m-1152.2 460.5c26.1 0 50.9 10.3 69.4 28.8 18.5 18.4 28.8 43.3 28.8 69.4 0 26.1-10.3 51-28.8 69.4-18.5 18.5-43.3 28.8-69.4 28.8-26.1 0-51-10.3-69.4-28.8-18.5-18.4-28.8-43.3-28.8-69.4 0-26.1 10.3-51 28.8-69.4 18.4-18.5 43.3-28.8 69.4-28.8zm50.7 59.5l0.1 0.5c2.5 10.4 3.8 21.1 4.2 31.7v0.5h31l-0.1-0.6c-0.9-12.6-4.7-24.9-11-36l-0.2-0.3-0.3 0.1q-11.5 2.4-23.1 4zm-18.4-41.2l1.1 1.5c2.5 3.3 4.6 6.8 6.5 10.4 3 5.5 5.4 11.3 7.4 17.3l0.1 0.4 0.4-0.1q9.4-1.3 18.8-3.1l0.8-0.1-0.5-0.7q-2.9-3.5-6-6.6c-7.7-7.7-16.8-13.9-26.8-18.3zm-64.8 0l-1.7 0.8c-10 4.3-19.1 10.5-26.8 18.2q-3.1 3.1-5.9 6.5l-0.6 0.7 0.9 0.2q9.3 1.7 18.7 3h0.4l0.2-0.4c1.9-5.8 4.3-11.6 7.2-17 1.9-3.6 4.1-7.1 6.5-10.4zm0 159.8l-1.1-1.5c-2.5-3.3-4.6-6.8-6.5-10.4-2.9-5.4-5.3-11.1-7.3-16.9l-0.1-0.4h-0.4q-9.3 1.5-18.4 3.4l-0.8 0.2 0.5 0.6q2.6 3.2 5.5 6.1c7.7 7.7 16.8 13.9 26.8 18.2zm64.8 0l1.7-0.8c10-4.3 19.1-10.5 26.8-18.2q3-2.9 5.6-6.2l0.6-0.6-0.8-0.2q-9.2-2-18.4-3.4l-0.5-0.1-0.1 0.4c-2 5.9-4.4 11.7-7.3 17.2-1.9 3.6-4.1 7.1-6.5 10.3zm18.4-41.1l0.5 0.1q11.5 1.9 22.8 4.5l0.4 0.1 0.1-0.3c6.5-11.2 10.4-23.7 11.4-36.6v-0.6h-31v0.5c-0.4 10.7-1.7 21.4-4.1 31.8zm-125.1 4.7h0.4q11.3-2.6 22.8-4.4l0.5-0.1-0.1-0.5c-2.5-10.5-3.8-21.3-4.2-32v-0.5h-31v0.5c1 13 4.9 25.5 11.4 36.7zm69-90.9v-38.1l-0.7 0.2c-10.5 3.1-18.4 13.6-23.4 22.9-2.1 4-4 8.3-5.5 12.6l-0.2 0.6 0.6 0.1q14.3 1.4 28.6 1.7zm-33.3 9.9l-0.1 0.4c-2.4 10-3.7 20.2-4.1 30.5v0.5h37.5v-29.3h-0.5q-16.2-0.4-32.3-2.1zm33.3 72.5v-29h-37.6v0.5c0.4 10.2 1.7 20.5 4.2 30.4l0.1 0.5 0.4-0.1q16.1-1.9 32.4-2.3zm0 50.5v-38.5h-0.6q-14.3 0.3-28.6 2h-0.7l0.3 0.6c1.5 4.4 3.4 8.7 5.6 12.8 4.9 9.2 12.8 19.8 23.3 22.9zm12-38.5v38.1l0.7-0.2c9.9-3.5 17.4-13.6 22.2-22.5 2.2-4.2 4-8.5 5.6-13l0.3-0.6h-0.7q-13.7-1.6-27.6-1.8zm32.2-9.8l0.1-0.5c2.4-9.8 3.7-20 4.1-30.2l0.1-0.5h-36.5v29h0.5q15.7 0.3 31.3 2.1zm0-74.4l-0.5 0.1q-15.6 1.6-31.2 1.8h-0.5v29.4h36.4v-0.6c-0.4-10.2-1.7-20.3-4.1-30.2zm-3.5-11.7l-0.2-0.7c-1.6-4.4-3.5-8.7-5.7-12.8-4.7-8.9-12.3-19-22.1-22.5l-0.7-0.3v37.9h0.5q13.8-0.2 27.5-1.6zm-110 6l-0.2 0.3c-6.3 11.1-10 23.4-11 36.1v0.6h30.9l0.1-0.5c0.3-10.8 1.7-21.5 4.1-31.9l0.2-0.6h-0.6q-11.6-1.7-23.1-3.9z"/>
		<path id="&lt;Compound Path&gt;" fill-rule="evenodd" class="s0" d="m-1580.5 458.7c40.1 0 72.6 32.6 72.6 72.7q0 2.3-0.1 4.6l-0.1 0.9v0.1c-3.2 47.2-47.2 91-75.3 121.6-23.9-29.1-57.7-70.9-67.2-108.1-1.7-6.1-2.6-12.5-2.6-19.1 0-40.1 32.6-72.7 72.7-72.7zm-34.7 72.7c0 19.1 15.5 34.7 34.7 34.7 19.2 0 34.7-15.6 34.7-34.7 0-19.2-15.5-34.7-34.7-34.7-19.2 0-34.7 15.5-34.7 34.7z"/>
		<path id="&lt;Path&gt;" class="s0" d="m-306.4 511.4q-3.6-35.1-4.1-39.6c-1.1-11.3-24.7-10.3-33.5-6.1-37.3 17.6-26.7 67.7-13.1 98q38.6 74.7 85.7 87.3c24.5 8.7 56.3 2.7 58.4-27.8q0.4-6.2-1.3-10.1-2.8-5.8-41.2-21.8-7.5-2.7-17.4 6-1.5 1.3-3 2.3c-4.9 3.2-7.6 3.4-12.1 0-13.6-10.5-34.3-47.7-38.7-58.8q-1.6-6.7 5.8-10.4 14.4-6.4 14.5-19z"/>
		<path id="&lt;Compound Path&gt;" fill-rule="evenodd" class="s0" d="m-649.3 608.7h20.9q-9.8 20-30.1 31.3c-15.4 8.6-34.3 13-56.5 13-21.6 0-40.1-3.7-55.8-10.9q-23.5-11-34.9-32.3c-7.7-14.2-11.5-29.7-11.5-46.5q0-27.5 13-51.3c8.7-15.8 20.6-27.7 35.6-35.7q22.6-11.9 51.7-11.9c16.4 0 31.1 3.2 43.8 9.6q19.2 9.6 29.4 27.3 10.1 17.7 10.1 38.6c0 16.7-5.1 31.7-15.4 45.1q-19.2 25.5-49.4 25.5-8.1 0-12.2-2.8c-2.7-1.9-4.5-4.7-5.5-8.3-7.6 7.4-16.5 11.1-26.5 11.1q-16.3 0-27-11.2-10.7-11.2-10.7-29.8c0-15.3 4.3-29.3 12.9-41.9q15.7-23.1 40.1-23.1c11.6 0 20.2 4.4 25.7 13.3l2.4-10.9h25.8l-14.8 70.1q-1.3 6.6-1.3 8.6c0 1.6 0.3 2.8 1.1 3.6q1.1 1.3 2.7 1.3 4.7-0.1 12.1-5.7c6.7-5 12.1-11.6 16.2-20q6.1-12.5 6.1-25.9 0-24.1-17.4-40.3-17.4-16.1-48.6-16.2-26.5 0-44.9 10.9c-12.3 7.2-21.6 17.4-27.8 30.5q-9.4 19.6-9.4 40.9c0 13.8 3.5 26.4 10.5 37.7q10.4 17 29.2 24.8 18.8 7.7 43.1 7.7c15.6 0 29-2.2 40.2-6.5q16.8-6.6 27.1-19.7zm-105.6-40.2q0 12.4 5 18.3 5.1 5.9 12.5 5.9 5.6 0 10.4-2.8 3.7-1.9 7.3-6.2c3.5-3.9 6.5-9.7 9-17.4q3.7-11.4 3.7-21.3c0-7.3-1.7-13-5.1-17q-5.1-5.9-12.9-5.9-8.4 0-15.5 6.5-7.1 6.5-10.8 18.6-3.6 12-3.6 21.3z"/>
		<path id="&lt;Compound Path&gt;" fill-rule="evenodd" class="s0" d="m44.2 489.8h187.6c4.5 0 8.2 3.7 8.2 8.1v121.5c0 4.5-3.7 8.2-8.2 8.2h-187.6c-4.5 0-8.1-3.7-8.1-8.2v-121.5c0-4.4 3.6-8.1 8.1-8.1zm13.1 10.7l80.9 67.9c0.1 0.1 0.3 0.1 0.5 0l80.9-67.9zm172 7.1l-58.8 49.3 58.8 49.4zm-88.1 73.9c-1.7 1.5-4.5 1.5-6.3 0l-20.2-16.9-62.5 52.4h171.7l-62.4-52.4zm-94.4 24.8l58.9-49.4-58.9-49.3z"/>
		<path id="&lt;Compound Path&gt;" fill-rule="evenodd" class="s0" d="m-1580.5 385c48 0 91.4 19.4 122.8 50.8 31.5 31.5 50.9 74.9 50.9 122.9 0 48-19.4 91.4-50.9 122.8-31.4 31.5-74.8 50.9-122.8 50.9-48 0-91.4-19.4-122.9-50.9-31.4-31.4-50.8-74.8-50.8-122.8 0-48 19.4-91.4 50.8-122.9 31.5-31.4 74.9-50.8 122.9-50.8zm113.7 60c-29.1-29.1-69.3-47.1-113.7-47.1-44.4 0-84.6 18-113.7 47.1-29.1 29.1-47.1 69.3-47.1 113.7 0 44.4 18 84.6 47.1 113.7 29.1 29.1 69.3 47.1 113.7 47.1 44.4 0 84.6-18 113.7-47.1 29.1-29.1 47.1-69.3 47.1-113.7 0-44.4-18-84.6-47.1-113.7z"/>
		<path id="&lt;Compound Path&gt;" fill-rule="evenodd" class="s0" d="m-2010 385c47.9 0 91.4 19.4 122.8 50.8 31.5 31.5 50.9 74.9 50.9 122.9 0 48-19.4 91.4-50.9 122.8-31.4 31.5-74.9 50.9-122.8 50.9-48 0-91.4-19.4-122.9-50.9-31.4-31.4-50.9-74.8-50.9-122.8 0-48 19.5-91.4 50.9-122.9 31.5-31.4 74.9-50.8 122.9-50.8zm113.7 60c-29.1-29.1-69.3-47.1-113.7-47.1-44.4 0-84.7 18-113.8 47.1-29.1 29.1-47.1 69.3-47.1 113.7 0 44.4 18 84.6 47.1 113.7 29.1 29.1 69.4 47.1 113.8 47.1 44.4 0 84.6-18 113.7-47.1 29.1-29.1 47.1-69.3 47.1-113.7 0-44.4-18-84.6-47.1-113.7z"/>
		<path id="&lt;Compound Path&gt;" fill-rule="evenodd" class="s0" d="m-1152.2 385c48 0 91.4 19.4 122.8 50.8 31.5 31.5 50.9 74.9 50.9 122.9 0 48-19.4 91.4-50.9 122.8-31.4 31.5-74.8 50.9-122.8 50.9-48 0-91.4-19.4-122.9-50.9-31.4-31.4-50.9-74.8-50.9-122.8 0-48 19.5-91.4 50.9-122.9 31.5-31.4 74.9-50.8 122.9-50.8zm113.7 60c-29.1-29.1-69.3-47.1-113.7-47.1-44.4 0-84.6 18-113.7 47.1-29.2 29.1-47.2 69.3-47.2 113.7 0 44.4 18 84.6 47.2 113.7 29.1 29.1 69.3 47.1 113.7 47.1 44.4 0 84.6-18 113.7-47.1 29.1-29.1 47.1-69.3 47.1-113.7 0-44.4-18-84.6-47.1-113.7z"/>
		<path id="&lt;Compound Path&gt;" fill-rule="evenodd" class="s0" d="m-722.8 385c48 0 91.4 19.4 122.8 50.8 31.5 31.5 50.9 74.9 50.9 122.9 0 48-19.4 91.4-50.9 122.8-31.4 31.5-74.8 50.9-122.8 50.9-48 0-91.4-19.4-122.9-50.9-31.4-31.4-50.8-74.8-50.8-122.8 0-48 19.4-91.4 50.8-122.9 31.5-31.4 74.9-50.8 122.9-50.8zm113.7 60c-29.1-29.1-69.3-47.1-113.7-47.1-44.4 0-84.6 18-113.7 47.1-29.1 29.1-47.1 69.3-47.1 113.7 0 44.4 18 84.6 47.1 113.7 29.1 29.1 69.3 47.1 113.7 47.1 44.4 0 84.6-18 113.7-47.1 29.1-29.1 47.1-69.3 47.1-113.7 0-44.4-18-84.6-47.1-113.7z"/>
		<path id="&lt;Compound Path&gt;" fill-rule="evenodd" class="s0" d="m-291.3 385c48 0 91.4 19.4 122.9 50.8 31.4 31.5 50.8 74.9 50.8 122.9 0 48-19.4 91.4-50.8 122.8-31.5 31.5-74.9 50.9-122.9 50.9-48 0-91.4-19.4-122.8-50.9-31.5-31.4-50.9-74.8-50.9-122.8 0-48 19.4-91.4 50.9-122.9 31.4-31.4 74.8-50.8 122.8-50.8zm113.7 60c-29.1-29.1-69.3-47.1-113.7-47.1-44.4 0-84.6 18-113.7 47.1-29.1 29.1-47.1 69.3-47.1 113.7 0 44.4 18 84.6 47.1 113.7 29.1 29.1 69.3 47.1 113.7 47.1 44.4 0 84.6-18 113.7-47.1 29.1-29.1 47.1-69.3 47.1-113.7 0-44.4-18-84.6-47.1-113.7z"/>
		<path id="&lt;Compound Path&gt;" fill-rule="evenodd" class="s0" d="m138 385c48 0 91.4 19.4 122.9 50.8 31.4 31.5 50.9 74.9 50.9 122.9 0 48-19.5 91.4-50.9 122.8-31.5 31.5-74.9 50.9-122.9 50.9-47.9 0-91.4-19.4-122.8-50.9-31.5-31.4-50.9-74.8-50.9-122.8 0-48 19.4-91.4 50.9-122.9 31.4-31.4 74.9-50.8 122.8-50.8zm113.8 60c-29.1-29.1-69.4-47.1-113.8-47.1-44.4 0-84.6 18-113.7 47.1-29.1 29.1-47.1 69.3-47.1 113.7 0 44.4 18 84.6 47.1 113.7 29.1 29.1 69.3 47.1 113.7 47.1 44.4 0 84.7-18 113.8-47.1 29.1-29.1 47.1-69.3 47.1-113.7 0-44.4-18-84.6-47.1-113.7z"/>
		<path id="&lt;Path&gt;" class="s0" d="m138 883.7c48 0 91.4 19.4 122.9 50.8 31.4 31.5 50.9 74.9 50.9 122.9 0 48-19.5 91.4-50.9 122.9-31.5 31.4-74.9 50.8-122.9 50.8-47.9 0-91.4-19.4-122.8-50.8-31.5-31.5-50.9-74.9-50.9-122.9 0-48 19.4-91.4 50.9-122.9 31.4-31.4 74.9-50.8 122.8-50.8z"/>
		<path id="&lt;Path&gt;" class="s0" d="m-291.3 883.7c48 0 91.4 19.4 122.9 50.8 31.4 31.5 50.8 74.9 50.8 122.9 0 48-19.4 91.4-50.8 122.9-31.5 31.4-74.9 50.8-122.9 50.8-48 0-91.4-19.4-122.8-50.8-31.5-31.5-50.9-74.9-50.9-122.9 0-48 19.4-91.4 50.9-122.9 31.4-31.4 74.8-50.8 122.8-50.8z"/>
		<path id="&lt;Path&gt;" class="s0" d="m-2010 883.7c47.9 0 91.4 19.4 122.8 50.8 31.5 31.5 50.9 74.9 50.9 122.9 0 48-19.4 91.4-50.9 122.9-31.4 31.4-74.9 50.8-122.8 50.8-48 0-91.4-19.4-122.9-50.8-31.4-31.5-50.9-74.9-50.9-122.9 0-48 19.5-91.4 50.9-122.9 31.5-31.4 74.9-50.8 122.9-50.8z"/>
		<path id="&lt;Path&gt;" class="s0" d="m-722.8 883.7c48 0 91.4 19.4 122.8 50.8 31.5 31.5 50.9 74.9 50.9 122.9 0 48-19.4 91.4-50.9 122.9-31.4 31.4-74.8 50.8-122.8 50.8-48 0-91.4-19.4-122.9-50.8-31.4-31.5-50.8-74.9-50.8-122.9 0-48 19.4-91.4 50.8-122.9 31.5-31.4 74.9-50.8 122.9-50.8z"/>
		<path id="&lt;Path&gt;" class="s0" d="m-1152.2 883.7c48 0 91.4 19.4 122.8 50.8 31.5 31.5 50.9 74.9 50.9 122.9 0 48-19.4 91.4-50.9 122.9-31.4 31.4-74.8 50.8-122.8 50.8-48 0-91.4-19.4-122.9-50.8-31.4-31.5-50.9-74.9-50.9-122.9 0-48 19.5-91.4 50.9-122.9 31.5-31.4 74.9-50.8 122.9-50.8z"/>
		<path id="&lt;Path&gt;" class="s0" d="m-1580.5 883.7c48 0 91.4 19.4 122.8 50.8 31.5 31.5 50.9 74.9 50.9 122.9 0 48-19.4 91.4-50.9 122.9-31.4 31.4-74.8 50.8-122.8 50.8-48 0-91.4-19.4-122.9-50.8-31.4-31.5-50.8-74.9-50.8-122.9 0-48 19.4-91.4 50.8-122.9 31.5-31.4 74.9-50.8 122.9-50.8z"/>
		<path id="&lt;Path&gt;" class="s1" d="m-2007.3 959.8l39.7 37.5v-20h25.4v43.9l37.9 35.7h-24.8v85.9h-50.8v-31.7c0-14.7-12.1-26.8-26.9-26.8-14.7 0-26.8 12.1-26.8 26.8v31.7h-52.9v-85.9h-24.8z"/>
		<path id="&lt;Compound Path&gt;" fill-rule="evenodd" class="s1" d="m-1152.2 959.2c26.1 0 50.9 10.3 69.4 28.8 18.5 18.4 28.8 43.3 28.8 69.4 0 26.1-10.3 51-28.8 69.4-18.5 18.5-43.3 28.8-69.4 28.8-26.1 0-51-10.3-69.4-28.8-18.5-18.4-28.8-43.3-28.8-69.4 0-26.1 10.3-51 28.8-69.4 18.4-18.5 43.3-28.8 69.4-28.8zm50.7 59.5l0.1 0.6c2.5 10.3 3.8 21 4.2 31.6v0.5h31l-0.1-0.6c-0.9-12.6-4.7-24.9-11-36l-0.2-0.3-0.3 0.1q-11.5 2.4-23.1 4zm-18.4-41.2l1.1 1.5c2.5 3.3 4.6 6.8 6.5 10.4 3 5.5 5.4 11.3 7.4 17.3l0.1 0.4 0.4-0.1q9.4-1.3 18.8-3.1l0.8-0.1-0.5-0.7q-2.9-3.5-6-6.6c-7.7-7.7-16.8-13.9-26.8-18.2zm-64.8 0l-1.7 0.7c-10 4.3-19.1 10.5-26.8 18.2q-3.1 3.1-5.9 6.6l-0.6 0.6 0.9 0.2q9.3 1.7 18.7 3h0.4l0.2-0.4c1.9-5.8 4.3-11.6 7.2-17 1.9-3.6 4.1-7.1 6.5-10.4zm0 159.9l-1.1-1.6c-2.5-3.3-4.6-6.8-6.5-10.4-2.9-5.4-5.3-11.1-7.3-16.9l-0.1-0.4-0.4 0.1q-9.3 1.4-18.4 3.3l-0.8 0.2 0.5 0.6q2.6 3.2 5.5 6.1c7.7 7.7 16.8 13.9 26.8 18.2zm64.8 0l1.7-0.8c10-4.3 19.1-10.5 26.8-18.2q3-2.9 5.6-6.1l0.6-0.7-0.8-0.2q-9.2-2-18.4-3.4l-0.5-0.1-0.1 0.4c-2 5.9-4.4 11.7-7.3 17.2-1.9 3.6-4.1 7.1-6.5 10.4zm18.4-41.2l0.5 0.1q11.5 1.9 22.8 4.5l0.4 0.1 0.1-0.3c6.5-11.2 10.4-23.7 11.4-36.6v-0.6h-31v0.5c-0.4 10.7-1.7 21.4-4.1 31.8zm-125.1 4.7h0.4q11.3-2.6 22.8-4.4l0.5-0.1-0.1-0.5c-2.5-10.5-3.8-21.3-4.2-32v-0.5h-31v0.5c1 13 4.9 25.5 11.4 36.7zm69-90.9v-38.1l-0.7 0.2c-10.5 3.1-18.4 13.6-23.4 22.9-2.1 4-4 8.3-5.5 12.6l-0.2 0.6 0.6 0.1q14.3 1.4 28.6 1.7zm-33.3 9.9l-0.1 0.4c-2.4 10-3.7 20.3-4.1 30.5v0.5h37.5v-29.3h-0.5q-16.2-0.4-32.3-2.1zm33.3 72.5v-29h-37.6v0.5c0.4 10.3 1.7 20.5 4.2 30.4l0.1 0.5 0.4-0.1q16.1-1.9 32.4-2.3zm0 50.5v-38.5h-0.6q-14.3 0.3-28.6 2h-0.7l0.3 0.7c1.5 4.3 3.4 8.6 5.6 12.7 4.9 9.2 12.8 19.8 23.3 22.9zm12-38.5v38.1l0.7-0.2c9.9-3.5 17.4-13.6 22.2-22.5 2.2-4.2 4-8.5 5.6-12.9l0.3-0.7h-0.7q-13.7-1.6-27.6-1.8zm32.2-9.8l0.1-0.5c2.4-9.8 3.7-20 4.1-30.1l0.1-0.6h-36.5v29h0.5q15.7 0.3 31.3 2.1zm0-74.4l-0.5 0.1q-15.6 1.6-31.2 1.8h-0.5v29.4h36.4v-0.6c-0.4-10.2-1.7-20.3-4.1-30.2zm-3.5-11.7l-0.2-0.6c-1.6-4.4-3.5-8.7-5.7-12.9-4.7-8.9-12.3-19-22.1-22.5l-0.7-0.2v37.8h0.5q13.8-0.2 27.5-1.6zm-110 6l-0.2 0.3c-6.3 11.1-10 23.4-11 36.1v0.6h30.9l0.1-0.5c0.3-10.8 1.7-21.5 4.1-31.9l0.2-0.6h-0.6q-11.6-1.7-23.1-3.9z"/>
		<path id="&lt;Compound Path&gt;" fill-rule="evenodd" class="s1" d="m-1580.5 957.4c40.1 0 72.6 32.6 72.6 72.7q0 2.3-0.1 4.6l-0.1 0.9v0.1c-3.2 47.2-47.2 91-75.3 121.7-23.9-29.2-57.7-71-67.2-108.2-1.7-6.1-2.6-12.5-2.6-19.1 0-40.1 32.6-72.7 72.7-72.7zm-34.7 72.7c0 19.2 15.5 34.7 34.7 34.7 19.2 0 34.7-15.5 34.7-34.7 0-19.2-15.5-34.7-34.7-34.7-19.2 0-34.7 15.5-34.7 34.7z"/>
		<path id="&lt;Path&gt;" class="s1" d="m-306.4 1010.1q-3.6-35.1-4.1-39.6c-1.1-11.3-24.7-10.3-33.5-6.1-37.3 17.6-26.7 67.7-13.1 98q38.6 74.7 85.7 87.3c24.5 8.7 56.3 2.7 58.4-27.8q0.4-6.2-1.3-10.1-2.8-5.8-41.2-21.8-7.5-2.7-17.4 6-1.5 1.3-3 2.3c-4.9 3.2-7.6 3.4-12.1 0-13.6-10.5-34.3-47.7-38.7-58.8q-1.6-6.7 5.8-10.3 14.4-6.4 14.5-19.1z"/>
		<path id="&lt;Compound Path&gt;" fill-rule="evenodd" class="s1" d="m-649.3 1107.4h20.9q-9.8 20-30.1 31.3c-15.4 8.6-34.3 13-56.5 13-21.6 0-40.1-3.7-55.8-10.9q-23.5-11-34.9-32.3c-7.7-14.2-11.5-29.7-11.5-46.5q0-27.5 13-51.3c8.7-15.8 20.6-27.7 35.6-35.7q22.6-11.9 51.7-11.9c16.4 0 31.1 3.2 43.8 9.6q19.2 9.6 29.4 27.3 10.1 17.7 10.1 38.6c0 16.7-5.1 31.7-15.4 45.2q-19.2 25.4-49.4 25.4-8.1 0-12.2-2.8c-2.7-1.9-4.5-4.6-5.5-8.3-7.6 7.4-16.5 11.1-26.5 11.1q-16.3 0-27-11.2-10.7-11.2-10.7-29.8c0-15.3 4.3-29.3 12.9-41.9q15.7-23.1 40.1-23.1c11.6 0 20.2 4.4 25.7 13.3l2.4-10.9h25.8l-14.8 70.1q-1.3 6.6-1.3 8.6c0 1.6 0.3 2.8 1.1 3.6q1.1 1.3 2.7 1.3 4.7 0 12.1-5.7c6.7-5 12.1-11.6 16.2-20q6.1-12.5 6.1-25.9 0-24.1-17.4-40.3-17.4-16.1-48.6-16.1-26.5 0-44.9 10.8c-12.3 7.2-21.6 17.4-27.8 30.5q-9.4 19.6-9.4 40.9c0 13.8 3.5 26.4 10.5 37.7q10.4 17 29.2 24.8 18.8 7.7 43.1 7.7c15.6 0 29-2.2 40.2-6.5q16.8-6.6 27.1-19.7zm-105.6-40.2q0 12.4 5 18.3 5.1 5.9 12.5 5.9 5.6 0 10.4-2.8 3.7-1.9 7.3-6.2c3.5-3.9 6.5-9.7 9-17.4q3.7-11.4 3.7-21.3c0-7.3-1.7-13-5.1-17q-5.1-5.9-12.9-5.9-8.4 0-15.5 6.5-7.1 6.6-10.8 18.6-3.6 12-3.6 21.3z"/>
		<path id="&lt;Compound Path&gt;" fill-rule="evenodd" class="s1" d="m44.2 988.5h187.6c4.5 0 8.2 3.7 8.2 8.1v121.6c0 4.4-3.7 8.1-8.2 8.1h-187.6c-4.5 0-8.1-3.7-8.1-8.1v-121.6c0-4.4 3.6-8.1 8.1-8.1zm13.1 10.7l80.9 67.9c0.1 0.1 0.3 0.1 0.5 0l80.9-67.9zm172 7.1l-58.8 49.3 58.8 49.4zm-88.1 73.9c-1.7 1.5-4.5 1.5-6.3 0l-20.2-16.9-62.5 52.4h171.7l-62.4-52.4zm-94.4 24.8l58.9-49.4-58.9-49.3z"/>
	</g>
</svg>