<svg version="1.2" xmlns="http://www.w3.org/2000/svg" viewBox="0 0 510 510" width="300" height="300">
	<title>follow-svg</title>
	<style>
		.s0 { fill: #000000 } 
	</style>
	<g id="_Artboards_">
	</g>
	<g id="321353356351 1">
		<g id="&lt;Group&gt;">
			<path id="&lt;Compound Path&gt;" fill-rule="evenodd" class="s0" d="m-2185.2 255c0-55.4 10.9-109.2 32.3-159.9 20.7-48.9 50.3-92.8 88-130.6 37.7-37.7 81.7-67.3 130.6-88 50.7-21.4 104.5-32.3 159.9-32.3 55.4 0 109.2 10.9 159.9 32.3 48.9 20.7 92.8 50.3 130.5 88 37.7 37.8 67.4 81.7 88.1 130.6 21.4 50.7 32.3 104.5 32.3 159.9 0 55.4-10.9 109.2-32.3 159.9-20.7 48.9-50.4 92.8-88.1 130.6-37.7 37.7-81.6 67.3-130.5 88-50.7 21.4-104.5 32.3-159.9 32.3-55.4 0-109.2-10.9-159.9-32.3-48.9-20.7-92.9-50.3-130.6-88-37.7-37.8-67.3-81.7-88-130.6-21.4-50.7-32.3-104.5-32.3-159.9zm90.5 0c0 176.6 143.7 320.3 320.3 320.3 176.6 0 320.2-143.7 320.2-320.3 0-176.6-143.6-320.3-320.2-320.3-176.6 0-320.3 143.7-320.3 320.3z"/>
			<path id="&lt;Path&gt;" class="s0" d="m-1819.7 297.9v170.8c0 25 20.3 45.3 45.3 45.3 25 0 45.2-20.3 45.2-45.3v-170.8h168.5c23.7 0 42.9-19.2 42.9-42.9 0-23.7-19.2-42.9-42.9-42.9h-168.5v-170.8c0-25-20.2-45.3-45.2-45.3-25 0-45.3 20.3-45.3 45.3v170.8h-168.5c-23.6 0-42.8 19.2-42.8 42.9 0 23.7 19.2 42.9 42.8 42.9z"/>
		</g>
		<g id="&lt;Group&gt;">
			<path id="&lt;Compound Path&gt;" fill-rule="evenodd" class="s0" d="m-1103.4 255c0-189.6 154.2-343.9 343.8-343.9 189.6 0 343.9 154.3 343.9 343.9 0 189.6-154.3 343.9-343.9 343.9-189.6 0-343.8-154.3-343.8-343.9zm21.2 0c0 177.9 144.7 322.6 322.6 322.6 177.9 0 322.6-144.7 322.6-322.6 0-177.9-144.7-322.6-322.6-322.6-177.9 0-322.6 144.7-322.6 322.6z"/>
			<path id="&lt;Compound Path&gt;" fill-rule="evenodd" class="s0" d="m-1170.3 255c0-55.4 10.8-109.2 32.2-159.9 20.7-48.9 50.4-92.8 88.1-130.6 37.7-37.7 81.6-67.3 130.5-88 50.7-21.4 104.5-32.3 159.9-32.3 55.4 0 109.2 10.9 159.9 32.3 48.9 20.7 92.9 50.3 130.6 88 37.7 37.8 67.3 81.7 88 130.6 21.4 50.7 32.3 104.5 32.3 159.9 0 55.4-10.9 109.2-32.3 159.9-20.7 48.9-50.3 92.8-88 130.6-37.7 37.7-81.7 67.3-130.6 88-50.7 21.4-104.5 32.3-159.9 32.3-55.4 0-109.2-10.9-159.9-32.3-48.9-20.7-92.8-50.3-130.5-88-37.7-37.8-67.4-81.7-88.1-130.6-21.4-50.7-32.2-104.5-32.2-159.9zm21.2 0c0 52.6 10.3 103.6 30.7 151.6 19.6 46.4 47.7 88 83.4 123.8 35.8 35.8 77.4 63.8 123.8 83.5 48 20.3 99 30.6 151.6 30.6 52.6 0 103.6-10.3 151.6-30.6 46.4-19.7 88-47.7 123.8-83.5 35.8-35.8 63.8-77.4 83.5-123.8 20.3-48 30.6-99 30.6-151.6 0-52.6-10.3-103.6-30.6-151.6-19.7-46.4-47.7-88-83.5-123.8-35.7-35.8-77.4-63.8-123.8-83.5-48-20.3-99-30.6-151.6-30.6-52.6 0-103.6 10.3-151.6 30.6-46.4 19.7-88 47.7-123.8 83.5-35.7 35.8-63.8 77.4-83.4 123.8-20.4 48-30.7 99-30.7 151.6z"/>
			<path id="&lt;Compound Path&gt;" fill-rule="evenodd" class="s0" d="m-974 299.1c-24.3 0-44.1-19.8-44.1-44.1 0-24.3 19.8-44.1 44.1-44.1h170.3v-170.3c0-24.3 19.8-44.1 44.1-44.1 24.3 0 44.1 19.8 44.1 44.1v170.3h170.3c24.3 0 44.1 19.8 44.1 44.1 0 24.3-19.8 44.1-44.1 44.1h-170.3v170.3c0 24.3-19.8 44.1-44.1 44.1-24.3 0-44.1-19.8-44.1-44.1v-170.3zm0-21.3h191.6v191.6c0 12.6 10.3 22.8 22.8 22.8 12.6 0 22.8-10.2 22.8-22.8v-191.6h191.6c12.6 0 22.9-10.2 22.9-22.8 0-12.6-10.3-22.8-22.9-22.8h-191.6v-191.6c0-12.6-10.2-22.8-22.8-22.8-12.5 0-22.8 10.2-22.8 22.8v191.6h-191.6c-12.6 0-22.8 10.2-22.8 22.8 0 12.6 10.2 22.8 22.8 22.8z"/>
		</g>
		<path id="&lt;Compound Path&gt;" fill-rule="evenodd" class="s0" d="m-2378.5 255c0 55.4-10.8 109.2-32.3 159.9-20.7 48.9-50.3 92.8-88 130.6-37.7 37.7-81.6 67.3-130.5 88-50.7 21.4-104.5 32.3-159.9 32.3-55.5 0-109.3-10.9-159.9-32.3-48.9-20.7-92.9-50.3-130.6-88-37.7-37.8-67.3-81.7-88-130.6-21.4-50.7-32.3-104.5-32.3-159.9 0-55.4 10.9-109.2 32.3-159.9 20.7-48.9 50.3-92.8 88-130.5 37.7-37.8 81.7-67.4 130.6-88.1 50.6-21.4 104.4-32.3 159.9-32.3 55.4 0 109.2 10.9 159.9 32.3 48.9 20.7 92.8 50.3 130.5 88.1 37.7 37.7 67.3 81.6 88 130.5 21.5 50.7 32.3 104.5 32.3 159.9zm-147.4 0c0-20.9-17-37.9-37.8-37.9h-187.7v-187.6c0-20.9-17-37.9-37.8-37.9-20.9 0-37.9 17-37.9 37.9v187.6h-187.7c-20.8 0-37.8 17-37.8 37.9 0 20.9 17 37.9 37.8 37.9h187.7v187.6c0 20.9 17 37.9 37.9 37.9 20.8 0 37.8-17 37.8-37.9v-187.6h187.7c20.8 0 37.8-17 37.8-37.9z"/>
		<g id="&lt;Group&gt;">
			<path id="&lt;Compound Path&gt;" fill-rule="evenodd" class="s0" d="m666 255c0 55.4-10.9 109.2-32.3 159.9-20.7 48.9-50.3 92.8-88 130.6-37.7 37.7-81.7 67.3-130.6 88-50.6 21.4-104.4 32.3-159.9 32.3-55.4 0-109.2-10.9-159.9-32.3-48.9-20.7-92.8-50.3-130.5-88-37.7-37.8-67.4-81.7-88-130.6-21.5-50.7-32.3-104.5-32.3-159.9 0-55.4 10.8-109.2 32.3-159.9 20.6-48.9 50.3-92.8 88-130.6 37.7-37.7 81.6-67.3 130.5-88 50.7-21.4 104.5-32.3 159.9-32.3 55.5 0 109.3 10.9 159.9 32.3 48.9 20.7 92.9 50.3 130.6 88 37.7 37.8 67.3 81.7 88 130.6 21.4 50.7 32.3 104.5 32.3 159.9zm-25.9 0c0-212.2-172.7-384.8-384.9-384.8-212.2 0-384.8 172.6-384.8 384.8 0 212.2 172.6 384.8 384.8 384.8 212.2 0 384.9-172.6 384.9-384.8z"/>
			<path id="&lt;Path&gt;" class="s0" d="m487.9 242h-219.7v-219.6c0-7.2-5.8-13-13-13-7.1 0-12.9 5.8-12.9 13v219.6h-219.7c-7.1 0-12.9 5.8-12.9 13 0 7.2 5.8 13 12.9 13h219.7v219.6c0 7.2 5.8 13 12.9 13 7.2 0 13-5.8 13-13v-219.6h219.7c7.1 0 12.9-5.8 12.9-13 0-7.2-5.8-13-12.9-13z"/>
		</g>
	</g>
</svg>