<svg version="1.2" xmlns="http://www.w3.org/2000/svg" viewBox="0 0 1920 210" width="1920" height="210">
	<title>Nytt projekt</title>
	<style>
		.s0 { fill: #000000 } 
	</style>
	<path id="ISA WESTLING" class="s0" aria-label="ISA WESTLING"  d="m18.9 193v-175.3h25.3v175.3zm24.4-174.5h-23.6v173.7h23.6zm-24.4-0.9v175.3h25.2v-175.3zm154.9 75.2h-50.1c-1.4-0.1-2.9-0.2-4.4-0.2-0.8 0-1.7 0-2.5 0.1-12.5-1.3-22.4-11.9-22.4-24.7 0-13.7 11.2-24.9 24.9-24.9h55.4c12.9 0.5 23.2 10.7 24 23.5h25.2c-0.2-8.5-2.6-16.5-6.6-23.5 0 0 0 0 0 0-8.4-14.7-24.1-24.7-42.2-25.2-0.5 0-0.9 0-1.3 0-0.5 0-0.9 0-1.3 0h-53.2c-18.6 0-34.9 10.2-43.5 25.2-4.2 7.4-6.6 15.8-6.6 24.9 0 9 2.4 17.5 6.6 24.8 2.1 3.7 4.6 7 7.6 10.1 9 9.3 21.8 15.1 35.9 15.1h54.5c13.7 0 24.9 11.2 24.9 24.9 0 13.7-11.2 24.8-24.9 24.8h-54.5c-13.2 0-24.1-10.4-24.8-23.5h-25.3c0.2 8.5 2.6 16.5 6.6 23.5 8.7 15.1 24.9 25.2 43.5 25.2h54.5c18.7 0 34.9-10.1 43.5-25.2 4.2-7.3 6.6-15.8 6.6-24.8 0-9.1-2.4-17.5-6.6-24.9-8.6-15-24.8-25.2-43.5-25.2zm49.3 100.1h33.3l55.5-100.2-16.6-30.3zm113.9-145.5l-16.7-30.1-16.7 30.1 16.7 30.1 63.8 115.4h33.4zm449.2-27.4l-50.2 111.4-36.3-80.7-13.9-30.7-13.8 30.7-36.4 80.7-50.1-111.4h-27.7l64 142.2 13.8 30.7 13.9-30.7 36.3-80.7 36.4 80.7 13.8 30.7 13.9-30.7 64-142.2zm69.2 91.7h112.5v-25.3h-112.5v-30.6h-25.3v137.1h154.7v-25.3h-129.4zm-25.3-93.7v25.2h154.7v-25.2zm276.1 74.8h-50.1c-1.5-0.1-2.9-0.2-4.4-0.2-0.8 0-1.7 0-2.5 0.1-12.6-1.3-22.4-11.9-22.4-24.7 0-13.7 11.1-24.9 24.8-24.9h55.5c12.8 0.5 23.2 10.8 23.9 23.6h25.3c-0.3-8.6-2.6-16.6-6.6-23.6 0 0 0 0 0 0-8.5-14.7-24.2-24.7-42.3-25.2-0.4 0-0.8 0-1.3 0-0.4 0-0.8 0-1.3 0h-53.2c-18.6 0-34.8 10.2-43.5 25.2-4.1 7.4-6.5 15.8-6.5 24.9 0 9 2.4 17.5 6.5 24.8 2.2 3.7 4.7 7 7.6 10.1 9.1 9.3 21.8 15.1 35.9 15.1h54.6c13.7 0 24.8 11.2 24.8 24.9 0 13.7-11.1 24.8-24.8 24.8h-54.5c-13.3 0-24.1-10.4-24.9-23.5h-25.2c0.2 8.5 2.6 16.5 6.6 23.5 8.6 15.1 24.9 25.2 43.5 25.2h54.5c18.6 0 34.9-10.1 43.5-25.2 4.2-7.3 6.6-15.8 6.6-24.8 0-9.1-2.4-17.5-6.6-24.9-8.6-15-24.9-25.2-43.5-25.2zm164.6 100.1v-137h-25.3v137zm66.8-149.7v-25.2h-156.1v25.2zm50.4 124.5v-151.1h-25.3v176.3h136.2v-25.2zm135.9 25.2v-175.3h25.3v175.3zm24.4-174.4h-23.6v173.6h23.6zm-24.4-0.8v175.3h25.2v-175.3zm50.3 175.3h25.2v-96.6l-25.2-25.3zm113.6-175v113.3l-113.6-113.6v35.7l25.2 25.2 88.4 88.4 25.3 25.2v-174.2zm212.5 69h-86.7l11.6 25.2h49.9v55.6h-59.2c-31.5-4.2-55.9-30.4-55.9-62.1 0-31.6 24.4-57.8 55.9-62h84.1v-25.3h-75.2c-24.5 0-46.8 9.7-62.9 25.3-16.4 15.8-26.6 37.8-26.6 62 0 24.3 10.2 46.3 26.6 62.1 16.1 15.6 38.4 25.2 62.9 25.2h75.5z"/>
</svg>