<svg version="1.2" xmlns="http://www.w3.org/2000/svg" viewBox="0 0 720 472" width="720" height="472">
	<title>Nytt projekt</title>
	<style>
		.s0 { fill: #000000 } 
	</style>
	<path id="ISA" class="s0" aria-label="ISA"  d="m-0.6 317v-316.7h45.6v316.7zm44.1-315.1h-42.6v313.6h42.6zm-44.1-1.5v316.6h45.6v-316.6zm279.9 135.8h-90.6c-2.6-0.3-5.2-0.4-7.9-0.4-1.5 0-3.1 0.1-4.6 0.1-22.6-2.2-40.4-21.4-40.4-44.6 0-24.7 20.1-44.8 44.9-44.8h100.1c23.2 0.8 42 19.3 43.3 42.4h45.6c-0.4-15.4-4.7-29.9-11.9-42.4 0-0.1 0-0.1 0-0.1-15.3-26.6-43.7-44.7-76.3-45.5-0.8-0.1-1.6-0.1-2.4-0.1-0.8 0-1.5 0-2.3 0.1h-96.1c-33.6 0-63 18.3-78.6 45.6-7.5 13.2-11.9 28.5-11.9 44.8 0 16.3 4.4 31.6 11.9 44.9 3.8 6.6 8.4 12.7 13.7 18.1 16.4 16.9 39.4 27.4 64.9 27.4h98.6c24.7 0 44.8 20.2 44.8 44.9 0 24.7-20.1 44.8-44.8 44.8h-98.5c-24 0-43.6-18.8-44.9-42.5h-45.7c0.5 15.5 4.8 30 12 42.5 15.6 27.3 45 45.6 78.6 45.6h98.5c33.6 0 62.9-18.3 78.5-45.6 7.6-13.2 11.9-28.5 11.9-44.8 0-16.3-4.3-31.6-11.9-44.9-15.6-27.2-44.9-45.5-78.5-45.5zm88.9 180.8h60.2l100.2-181.1-29.9-54.6zm205.6-262.8l-30.1-54.4v0.1l-30.1 54.3 30.1 54.4 115.3 208.4h60.2z"/>
	<path id="westling" class="s0" aria-label="westling"  d="m122.6 379.4l-26.9 59.7-19.5-43.3-7.4-16.4-7.5 16.4-19.4 43.3-26.9-59.7h-14.9l34.3 76.1 7.5 16.5 7.4-16.5 19.5-43.2 19.4 43.2 7.5 16.5 7.4-16.5 34.3-76.1zm37.1 49.1h60.3v-13.6h-60.3v-16.4h-13.5v73.5h82.9v-13.5h-69.4zm-13.5-50.3v13.5h82.9v-13.5zm148 40.1h-26.9c-0.8 0-1.6-0.1-2.3-0.1-0.5 0-0.9 0-1.4 0.1-6.7-0.7-12-6.4-12-13.3 0-7.3 6-13.3 13.3-13.3h29.7c6.9 0.3 12.5 5.7 12.9 12.6h13.5c-0.1-4.6-1.4-8.9-3.5-12.6 0 0 0 0 0 0-4.6-7.9-13-13.3-22.7-13.5-0.2 0-0.4 0-0.7 0-0.2 0-0.4 0-0.7 0h-28.5c-10 0-18.7 5.4-23.3 13.5-2.2 3.9-3.5 8.5-3.5 13.3 0 4.9 1.3 9.4 3.5 13.3 1.1 2 2.5 3.8 4.1 5.4 4.8 5 11.7 8.2 19.2 8.2h29.3c7.3 0 13.3 5.9 13.3 13.3 0 7.3-6 13.3-13.3 13.3h-29.2c-7.2 0-13-5.6-13.4-12.6h-13.5c0.1 4.5 1.4 8.8 3.5 12.6 4.7 8.1 13.4 13.5 23.4 13.5h29.2c10 0 18.7-5.4 23.3-13.5 2.2-4 3.5-8.5 3.5-13.3 0-4.9-1.3-9.4-3.5-13.3-4.6-8.1-13.3-13.6-23.3-13.6zm88.2 53.7v-73.5h-13.5v73.5zm35.7-80.2v-13.6h-83.6v13.6zm27 66.7v-81h-13.6v94.5h73v-13.5zm72.9 13.5v-94h13.5v94zm13.1-93.5h-12.6v93h12.6zm-13.1-0.4v94h13.6v-94zm26.9 94h13.5v-51.8l-13.5-13.5zm60.9-93.9v60.8l-60.9-60.9v19.1l13.5 13.5 47.4 47.4 13.6 13.5v-93.4zm113.9 37h-46.5l6.2 13.5h26.8v29.8h-31.7c-17-2.2-30-16.3-30-33.2 0-17 13-31.1 30-33.3h45v-13.5h-40.3c-13.1 0-25.1 5.1-33.7 13.5-8.8 8.5-14.3 20.3-14.3 33.3 0 13 5.5 24.8 14.3 33.2 8.6 8.4 20.6 13.6 33.7 13.6h40.5z"/>
</svg>